<svg width="139" height="141" viewBox="0 0 139 141" fill="none" xmlns="http://www.w3.org/2000/svg">
<path d="M71.1177 124.836C103.918 124.836 130.518 98.4359 130.518 65.8359C130.518 33.2359 103.918 6.83594 71.1177 6.83594C38.3177 6.83594 11.7177 33.2359 11.7177 65.8359C11.7177 98.4359 38.3177 124.836 71.1177 124.836Z" fill="#1F2B36"/>
<path d="M116.618 58.1V94.2C116.618 101.7 110.518 107.8 102.918 107.8H39.5176C32.0176 107.8 25.9176 101.8 25.8176 94.3C25.8176 94.2 25.8176 94.2 25.8176 94.1V58.1C25.8176 58 25.8176 58 25.8176 57.9C25.8176 57.7 25.8176 57.5 25.9176 57.3C26.0176 57 26.1176 56.8 26.2176 56.5L43.2176 24C43.8176 22.7 45.1176 22 46.5176 22H95.8176C97.2176 22 98.4176 22.7 99.1176 24L116.118 56.5C116.218 56.7 116.318 57 116.418 57.3C116.618 57.5 116.618 57.8 116.618 58.1Z" fill="#375169"/>
<g filter="url(#filter0_d_4496_23192)">
<path d="M116.618 58.1359V97.9359C116.618 103.436 112.218 107.836 106.618 107.836H35.8176C30.3176 107.836 25.8176 103.436 25.8176 97.9359V57.9359C25.8176 57.7359 25.8176 57.5359 25.9176 57.3359H48.7176C52.1176 57.3359 54.9176 60.0359 54.9176 63.5359C54.9176 65.2359 55.6176 66.8359 56.7176 67.9359C57.9176 69.1359 59.3176 69.7359 61.1176 69.7359H81.4176C84.8176 69.7359 87.6176 67.0359 87.6176 63.5359C87.6176 61.8359 88.3176 60.2359 89.4176 59.1359C90.6176 57.9359 92.0176 57.3359 93.7176 57.3359H116.418C116.618 57.5359 116.618 57.8359 116.618 58.1359Z" fill="url(#paint0_linear_4496_23192)"/>
</g>
<path d="M129 37.6355C131.264 37.6355 133.1 35.7999 133.1 33.5355C133.1 31.2712 131.264 29.4355 129 29.4355C126.736 29.4355 124.9 31.2712 124.9 33.5355C124.9 35.7999 126.736 37.6355 129 37.6355Z" fill="#1F2B36"/>
<path d="M124.9 24.3363C126.446 24.3363 127.7 23.0827 127.7 21.5363C127.7 19.9899 126.446 18.7363 124.9 18.7363C123.354 18.7363 122.1 19.9899 122.1 21.5363C122.1 23.0827 123.354 24.3363 124.9 24.3363Z" fill="#1F2B36"/>
<path d="M11.5 33.5355C13.0464 33.5355 14.3 32.2819 14.3 30.7355C14.3 29.1891 13.0464 27.9355 11.5 27.9355C9.95362 27.9355 8.70001 29.1891 8.70001 30.7355C8.70001 32.2819 9.95362 33.5355 11.5 33.5355Z" fill="#1F2B36"/>
<path d="M5.2 95.1363C8.07188 95.1363 10.4 92.8082 10.4 89.9363C10.4 87.0644 8.07188 84.7363 5.2 84.7363C2.32812 84.7363 0 87.0644 0 89.9363C0 92.8082 2.32812 95.1363 5.2 95.1363Z" fill="#1F2B36"/>
<path d="M96.2377 10.0059C97.5427 24.253 98.1953 27.5157 95.2405 40.4185C94.2796 43.287 93.3187 46.4288 91.2596 48.6143C88.3768 52.0293 83.1604 53.5318 78.9049 52.439C74.5122 51.3463 70.9431 47.5215 70.1194 42.8772C69.4331 40.0087 70.394 36.5938 72.8649 34.818C75.4731 33.1788 79.1795 33.5886 81.3759 35.6376C83.8468 37.6865 84.8077 40.8283 84.6704 43.8334C84.5332 46.8386 83.435 49.8437 81.925 52.439C78.5115 58.8207 77.1062 58.7972 70.1195 69.2783" stroke="#ABB5CC" stroke-width="2" stroke-miterlimit="10" stroke-dasharray="4 4"/>
<path d="M103.891 4.70013C103.37 6.60393 101.282 7.29622 99.1953 6.08471C96.9342 5.04628 95.3688 4.18091 95.7167 2.45019C96.2385 0.719462 98.3256 0.54639 100.761 0.373317C103.717 0.0271719 104.239 2.79633 103.891 4.70013Z" fill="#DAE2EB"/>
<path d="M87.0202 6.43047C87.8898 7.98813 90.3248 9.02656 92.0641 7.46891C93.9774 5.73818 95.5427 4.52667 94.6731 2.79595C93.8034 1.23829 92.412 1.75751 89.4552 2.10366C87.0202 2.62287 85.9766 4.69975 87.0202 6.43047Z" fill="#DAE2EB"/>
<path d="M94.673 0.026505C95.8905 -0.146568 97.108 0.545723 97.4558 1.58416C97.6298 1.9303 97.8037 2.44952 97.8037 2.79567C98.1515 5.21868 97.2819 7.29556 95.8905 7.46863C94.3251 7.81477 92.7597 6.08405 92.5858 3.8341C92.5858 3.14181 92.5858 2.79567 92.5858 2.27645C92.7597 1.06494 93.4555 0.199578 94.673 0.026505C94.8469 0.026505 94.673 0.026505 94.673 0.026505Z" fill="#989FB0"/>
<path d="M59.8082 84.0964C61.0753 84.0964 62.1025 83.0692 62.1025 81.8021C62.1025 80.535 61.0753 79.5078 59.8082 79.5078C58.5411 79.5078 57.5139 80.535 57.5139 81.8021C57.5139 83.0692 58.5411 84.0964 59.8082 84.0964Z" fill="white"/>
<path d="M82.6272 84.0964C83.8943 84.0964 84.9215 83.0692 84.9215 81.8021C84.9215 80.535 83.8943 79.5078 82.6272 79.5078C81.3601 79.5078 80.3329 80.535 80.3329 81.8021C80.3329 83.0692 81.3601 84.0964 82.6272 84.0964Z" fill="white"/>
<path d="M74.9382 99.1648H67.7452C66.6291 99.1648 65.699 98.2347 65.699 97.1185C65.699 96.0024 66.6291 95.0723 67.7452 95.0723H74.8762C75.9923 95.0723 76.9224 96.0024 76.9224 97.1185C76.9844 98.2347 76.0543 99.1648 74.9382 99.1648Z" fill="white"/>
<defs>
<filter id="filter0_d_4496_23192" x="3.81763" y="46.3359" width="134.8" height="94.5" filterUnits="userSpaceOnUse" color-interpolation-filters="sRGB">
<feFlood flood-opacity="0" result="BackgroundImageFix"/>
<feColorMatrix in="SourceAlpha" type="matrix" values="0 0 0 0 0 0 0 0 0 0 0 0 0 0 0 0 0 0 127 0" result="hardAlpha"/>
<feOffset dy="11"/>
<feGaussianBlur stdDeviation="11"/>
<feColorMatrix type="matrix" values="0 0 0 0 0.397708 0 0 0 0 0.47749 0 0 0 0 0.575 0 0 0 0.27 0"/>
<feBlend mode="normal" in2="BackgroundImageFix" result="effect1_dropShadow_4496_23192"/>
<feBlend mode="normal" in="SourceGraphic" in2="effect1_dropShadow_4496_23192" result="shape"/>
</filter>
<linearGradient id="paint0_linear_4496_23192" x1="71.188" y1="56.1678" x2="71.188" y2="108.38" gradientUnits="userSpaceOnUse">
<stop stop-color="#56789C"/>
<stop offset="0.9964" stop-color="#4F6181"/>
</linearGradient>
</defs>
</svg>
